HIERARCHY
ROOT Hips
{
 OFFSET 0.000000 0.000000 0.000000
 CHANNELS 6 Xposition Yposition Zposition Yrotation Xrotation Zrotation
 JOINT Chest
 {
  OFFSET 0.000000 9.585900 0.002600
  CHANNELS 3 Yrotation Xrotation Zrotation
  JOINT Chest2
  {
   OFFSET 0.000000 9.601200 -0.005300
   CHANNELS 3 Yrotation Xrotation Zrotation
   JOINT Chest3
   {
    OFFSET 0.000000 9.561800 0.000000
    CHANNELS 3 Yrotation Xrotation Zrotation
    JOINT Chest4
    {
     OFFSET 0.000000 9.552100 0.000000
     CHANNELS 3 Yrotation Xrotation Zrotation
     JOINT Neck
     {
      OFFSET 0.000000 14.453000 0.000000
      CHANNELS 3 Yrotation Xrotation Zrotation
      JOINT Head
      {
       OFFSET 0.000000 8.936500 -0.011300
       CHANNELS 3 Yrotation Xrotation Zrotation
       End Site
       {
        OFFSET 0.000000 17.073600 -0.006000
       }
      }
     }
     JOINT RightCollar
     {
      OFFSET -2.921100 9.558500 0.000000
      CHANNELS 3 Yrotation Xrotation Zrotation
      JOINT RightShoulder
      {
       OFFSET -13.519700 0.000000 0.000000
       CHANNELS 3 Yrotation Xrotation Zrotation
       JOINT RightElbow
       {
        OFFSET 0.000000 -29.696600 0.000000
        CHANNELS 3 Yrotation Xrotation Zrotation
        JOINT RightWrist
        {
         OFFSET 0.000000 -24.004700 0.000000
         CHANNELS 3 Yrotation Xrotation Zrotation
         End Site
         {
          OFFSET 0.000000 -17.728500 0.000000
         }
        }
       }
      }
     }
     JOINT LeftCollar
     {
      OFFSET 2.921100 9.558500 0.000000
      CHANNELS 3 Yrotation Xrotation Zrotation
      JOINT LeftShoulder
      {
       OFFSET 13.519700 0.000000 0.000000
       CHANNELS 3 Yrotation Xrotation Zrotation
       JOINT LeftElbow
       {
        OFFSET 0.000000 -29.696600 0.000000
        CHANNELS 3 Yrotation Xrotation Zrotation
        JOINT LeftWrist
        {
         OFFSET 0.000000 -24.004700 0.000000
         CHANNELS 3 Yrotation Xrotation Zrotation
         End Site
         {
          OFFSET 0.000000 -17.728500 0.000000
         }
        }
       }
      }
     }
    }
   }
  }
 }
 JOINT RightHip
 {
  OFFSET -7.771700 -0.012900 -0.001300
  CHANNELS 3 Yrotation Xrotation Zrotation
  JOINT RightKnee
  {
   OFFSET 0.000000 -40.869800 0.001200
   CHANNELS 3 Yrotation Xrotation Zrotation
   JOINT RightAnkle
   {
    OFFSET 0.000000 -39.717900 0.002100
    CHANNELS 3 Yrotation Xrotation Zrotation
    JOINT RightToe
    {
     OFFSET 0.000000 -4.965400 11.033500
     CHANNELS 3 Yrotation Xrotation Zrotation
     End Site
     {
      OFFSET 0.000000 -1.423100 5.872300
     }
    }
   }
  }
 }
 JOINT LeftHip
 {
  OFFSET 7.771700 -0.012900 -0.001300
  CHANNELS 3 Yrotation Xrotation Zrotation
  JOINT LeftKnee
  {
   OFFSET 0.000000 -40.869800 0.001200
   CHANNELS 3 Yrotation Xrotation Zrotation
   JOINT LeftAnkle
   {
    OFFSET 0.000000 -39.717900 0.002100
    CHANNELS 3 Yrotation Xrotation Zrotation
    JOINT LeftToe
    {
     OFFSET 0.000000 -4.965400 11.033500
     CHANNELS 3 Yrotation Xrotation Zrotation
     End Site
     {
      OFFSET 0.000000 -1.423100 5.872300
     }
    }
   }
  }
 }
}
MOTION
Frames: 8
Frame Time: 0.008333
-43.968399 45.113422 31.550262 173.932317 -26.792519 -0.053893 0.677969 17.785089 3.652869 0.006764 2.003363 0.408085 0.018987 3.319452 0.676717 0.442379 15.579569 3.254286 -1.210717 9.587613 -6.141214 -0.024385 -15.596581 -6.393805 16.737165 -3.077419 -19.118445 48.196949 -53.073004 -74.713508 -92.421948 -68.894386 78.720232 -18.440878 -10.735119 -42.405860 -24.035558 -4.983558 6.875564 -37.804957 -63.876347 60.108000 101.573822 -57.265456 -93.722772 28.115019 -9.940332 26.814295 1.853158 -63.663832 7.713660 -157.515194 74.341713 -154.852495 -15.044975 -21.731545 8.141070 0.111782 0.169502 -0.552885 4.864260 -53.551590 -3.318743 175.104886 64.093253 176.015846 -0.546695 -35.953825 2.145005 -0.013855 0.072028 0.011899
-43.957129 45.072126 31.527806 173.944771 -26.930535 -0.074705 0.587462 17.833011 3.627474 -0.002026 2.015634 0.409002 0.004465 3.338878 0.677820 0.372873 15.622386 3.242107 -1.095829 9.572584 -6.160887 0.089791 -15.624575 -6.445089 16.810943 -2.957358 -18.858346 46.521880 -52.867517 -73.159196 -94.987733 -70.554032 81.963412 -17.709486 -10.757060 -42.778730 -23.825571 -4.973350 6.645053 -35.646986 -63.367540 57.872306 104.007336 -58.516130 -96.830269 27.806117 -9.473574 27.738272 1.929632 -63.601759 7.714533 -157.551684 74.191339 -154.875871 -15.077360 -21.931415 8.350533 0.118145 0.203584 -0.528918 4.917507 -53.445448 -3.334454 175.121724 64.013812 176.083662 -0.544096 -36.004673 2.140981 -0.014017 0.069580 0.018264
-43.946844 45.028226 31.505003 173.954205 -27.066635 -0.095984 0.497112 17.880969 3.600285 -0.011095 2.025849 0.409323 -0.010505 3.355020 0.678065 0.301149 15.658441 3.227291 -1.013549 9.505430 -6.170582 0.320124 -15.673380 -6.531817 16.879794 -2.845918 -18.570402 44.801565 -52.641511 -71.558198 -98.106540 -72.140575 85.840770 -16.987772 -10.872966 -43.153844 -23.598857 -4.953931 6.381709 -33.517325 -62.766852 55.681672 106.796611 -59.755785 -100.272446 27.480210 -8.983626 28.549174 1.977822 -63.542506 7.748770 -157.559530 74.032606 -154.881791 -15.115589 -22.161845 8.543403 0.128286 0.250015 -0.491600 4.960247 -53.343476 -3.318253 175.160260 63.931305 176.148765 -0.562743 -36.058806 2.166276 -0.020570 0.068530 0.020823
-43.940034 44.981557 31.482419 173.973275 -27.194823 -0.109888 0.399290 17.926842 3.560387 -0.019804 2.034797 0.409297 0.021565 3.399808 0.687520 0.184399 15.659200 3.203689 -0.908102 9.452235 -6.178813 0.486186 -15.717008 -6.585709 16.940315 -2.755015 -18.250421 43.016661 -52.368016 -69.934092 -101.931159 -73.612820 90.488016 -16.271841 -11.044205 -43.563214 -23.367196 -4.940708 6.085115 -31.427698 -62.089461 53.564198 109.924217 -60.921456 -104.070707 27.141236 -8.498787 29.249234 2.012886 -63.491370 7.783585 -157.504231 73.857444 -154.837538 -15.162480 -22.428735 8.731283 0.130747 0.308266 -0.449643 5.014954 -53.253644 -3.337109 175.165206 63.847090 176.188237 -0.585491 -36.103666 2.185155 -0.023123 0.066628 0.031422
-43.939487 44.932669 31.459082 173.997011 -27.319360 -0.097318 0.298703 17.975477 3.491507 -0.027541 2.043011 0.408918 -0.016264 3.396870 0.682225 0.148905 15.704796 3.189117 -0.798033 9.405411 -6.181286 0.608530 -15.766762 -6.617863 16.981301 -2.677884 -17.894532 41.168472 -52.027829 -68.316565 -106.675430 -74.951110 96.080667 -15.579682 -11.217127 -44.006738 -23.132824 -4.918250 5.767056 -29.382693 -61.362780 51.531797 113.378751 -61.967156 -108.240819 26.789468 -8.047257 29.878034 2.059245 -63.443697 7.790720 -157.399559 73.667908 -154.762993 -15.235672 -22.685605 8.914658 0.147013 0.333338 -0.398579 5.099285 -53.165802 -3.401751 175.165391 63.766726 176.213002 -0.617733 -36.142788 2.214493 -0.023774 0.061767 0.033754
-43.942383 44.882189 31.434496 174.031322 -27.445704 -0.077027 0.196511 18.030381 3.410752 -0.033969 2.049974 0.408099 -0.048233 3.393337 0.675132 0.120236 15.744421 3.175099 -0.699172 9.351725 -6.177224 0.717007 -15.824019 -6.640260 16.992572 -2.609893 -17.505223 39.244752 -51.608918 -66.707104 -112.626697 -76.099983 102.886937 -14.918293 -11.334214 -44.483908 -22.900006 -4.869344 5.433099 -27.371217 -60.610016 49.589309 117.108601 -62.845935 -112.752636 26.416837 -7.670413 30.493637 2.063328 -63.396142 7.818404 -157.283305 73.470939 -154.700883 -15.313942 -22.953126 9.091562 0.164631 0.346691 -0.348724 5.181305 -53.074955 -3.479442 175.164245 63.687933 176.225007 -0.653543 -36.182499 2.252837 -0.019637 0.055947 0.022044
-43.938535 44.825576 31.419044 174.020253 -27.512143 -0.088869 0.164331 18.029537 3.388334 -0.039256 2.055566 0.406968 -0.056978 3.402150 0.673024 0.099596 15.773009 3.167959 -0.634678 9.285962 -6.172788 0.809678 -15.884088 -6.652874 16.950255 -2.568333 -17.104845 37.232304 -51.111021 -65.080219 -119.875245 -76.973702 111.004230 -14.281948 -11.367972 -44.980882 -22.702577 -4.825763 5.080465 -25.350806 -59.827552 47.712886 121.049415 -63.535044 -117.561258 26.028691 -7.390100 31.141841 1.948043 -63.417051 8.004327 -157.189361 73.308695 -154.661312 -15.418078 -23.219978 9.226370 0.190925 0.373031 -0.295324 5.230227 -53.060014 -3.468072 175.173860 63.596384 176.250282 -0.683360 -36.228374 2.279076 -0.022899 0.057633 0.022313
-43.951672 44.771438 31.394271 174.094555 -27.626558 -0.038431 0.050422 18.111797 3.280082 -0.059152 2.029346 0.392843 -0.064644 3.409980 0.670585 0.126910 15.815888 3.183383 -0.624077 9.200103 -6.174197 0.888383 -15.945772 -6.656490 16.831979 -2.559862 -16.719395 35.151127 -50.559019 -63.413508 -128.198374 -77.507778 120.229520 -13.663937 -11.320694 -45.472811 -22.563740 -4.820504 4.711491 -23.300736 -59.002464 45.883818 125.158510 -64.039968 -122.615008 25.637408 -7.191395 31.831413 1.922779 -63.387560 7.998116 -157.047276 73.088011 -154.617827 -15.487985 -23.480764 9.390256 0.194176 0.343005 -0.247450 5.318971 -52.982183 -3.627895 175.160360 63.525683 176.237729 -0.721250 -36.255676 2.310846 -0.015354 0.057610 0.025558
